<?xml version="1.0" encoding="UTF-8" standalone="no"?>
<!DOCTYPE svg PUBLIC "-//W3C//DTD SVG 1.1//EN" "http://www.w3.org/Graphics/SVG/1.1/DTD/svg11.dtd">
<svg version="1.1" xmlns="http://www.w3.org/2000/svg" xmlns:xlink="http://www.w3.org/1999/xlink" preserveAspectRatio="xMidYMid meet" viewBox="191.40914497129864 63.96000000000001 125.09515683678586 165.66294449573948" width="116.1" height="158.16"><defs><path d="M235.97 99.58L235.97 99.58L235.97 155.87L235.97 155.87L235.97 99.58Z" id="bi5P1puQP"></path><path d="M285.06 132.72L299.85 132.72L299.85 159.84L285.06 159.84L285.06 132.72Z" id="d2ua8nGUy"></path><path d="M240.67 68.58L243.29 68.69L245.86 68.84L248.4 69.01L250.91 69.22L253.37 69.45L255.79 69.71L258.16 70L260.49 70.32L262.77 70.66L265 71.03L267.18 71.42L269.3 71.84L271.36 72.28L273.37 72.75L275.31 73.23L277.19 73.74L279 74.27L280.75 74.82L282.42 75.4L284.03 75.99L285.55 76.6L287.01 77.22L288.38 77.87L289.68 78.53L290.89 79.21L292.01 79.9L293.05 80.61L294.01 81.33L294.87 82.07L295.63 82.82L296.3 83.58L296.88 84.35L297.35 85.13L297.72 85.93L297.99 86.73L298.15 87.54L298.21 88.37L298.15 89.19L297.99 90L297.72 90.8L297.35 91.6L296.88 92.38L296.3 93.15L295.63 93.91L294.87 94.66L294.01 95.4L293.05 96.12L292.01 96.83L290.89 97.52L289.68 98.2L288.38 98.86L287.01 99.51L285.55 100.14L284.03 100.74L282.42 101.34L280.75 101.91L279 102.46L277.19 102.99L275.31 103.5L273.37 103.99L271.36 104.45L269.3 104.89L267.18 105.31L265 105.7L262.77 106.07L260.49 106.42L258.16 106.73L255.79 107.02L253.37 107.28L250.91 107.52L248.4 107.72L245.86 107.89L243.29 108.04L240.67 108.15L238.03 108.23L235.97 108.27L235.97 68.46L238.03 68.5L240.67 68.58Z" id="aDkCpw2zz"></path><path d="M299.85 125.33C299.85 129.41 296.54 132.72 292.46 132.72C288.37 132.72 285.06 129.41 285.06 125.33C285.06 121.24 288.37 117.93 292.46 117.93C296.54 117.93 299.85 121.24 299.85 125.33Z" id="ac812SiXa"></path><path d="M257.22 77.23L257.66 77.29L258.09 77.37L258.51 77.46L258.93 77.57L259.34 77.69L259.75 77.83L260.15 77.99L260.55 78.16L260.93 78.35L261.32 78.54L261.69 78.76L262.05 78.99L262.41 79.23L262.76 79.49L263.09 79.76L263.42 80.04L263.74 80.34L264.04 80.65L264.34 80.97L264.62 81.3L264.89 81.65L265.14 82L265.39 82.37L265.62 82.75L265.83 83.14L266.03 83.54L266.22 83.95L266.39 84.37L266.54 84.8L266.68 85.24L266.8 85.69L266.9 86.14L266.98 86.58L267.04 87.03L267.09 87.48L267.09 87.5L264.83 87.45L264.82 87.3L264.77 86.94L264.7 86.58L264.62 86.23L264.53 85.87L264.42 85.52L264.29 85.17L264.16 84.83L264.01 84.51L263.85 84.18L263.67 83.87L263.49 83.57L263.3 83.27L263.09 82.99L262.88 82.71L262.65 82.45L262.42 82.19L262.17 81.94L261.92 81.71L261.66 81.48L261.39 81.26L261.11 81.06L260.83 80.86L260.53 80.68L260.24 80.51L259.93 80.35L259.62 80.2L259.3 80.06L258.98 79.94L258.65 79.83L258.32 79.73L257.99 79.64L257.65 79.57L257.31 79.5L256.96 79.46L256.61 79.42L256.26 79.4L255.91 79.39L255.55 79.4L255.2 79.42L254.84 79.46L254.48 79.51L254.13 79.57L253.77 79.65L253.41 79.75L253.06 79.86L252.71 79.98L252.38 80.12L252.05 80.27L251.73 80.43L251.42 80.6L251.11 80.78L250.82 80.98L250.53 81.18L250.26 81.4L249.99 81.63L249.73 81.86L249.49 82.1L249.25 82.36L249.02 82.62L248.81 82.89L248.6 83.16L248.41 83.45L248.23 83.74L248.05 84.04L247.89 84.35L247.74 84.66L247.61 84.97L247.48 85.29L247.37 85.62L247.35 85.69L264.66 90.62L266.88 90.67L266.82 90.96L266.71 91.38L266.58 91.8L266.44 92.21L266.29 92.61L266.12 93L265.93 93.39L265.73 93.77L265.51 94.15L265.29 94.51L265.04 94.87L264.79 95.21L264.52 95.55L264.23 95.88L263.94 96.19L263.63 96.5L263.31 96.79L262.98 97.07L262.63 97.34L262.27 97.6L261.91 97.84L261.53 98.07L261.14 98.29L260.74 98.49L260.33 98.67L259.9 98.84L259.47 99L259.03 99.14L258.59 99.25L258.14 99.35L257.69 99.44L257.24 99.5L256.8 99.54L256.35 99.57L255.91 99.58L255.47 99.57L255.03 99.55L254.6 99.5L254.16 99.44L253.74 99.37L253.31 99.27L252.89 99.16L252.48 99.04L252.07 98.9L251.67 98.74L251.27 98.57L250.88 98.39L250.5 98.19L250.13 97.97L249.77 97.74L249.41 97.5L249.06 97.24L248.73 96.97L248.4 96.69L248.08 96.39L247.78 96.09L247.48 95.76L247.2 95.43L246.93 95.09L246.68 94.73L246.43 94.36L246.2 93.98L245.99 93.59L245.79 93.19L245.6 92.78L245.43 92.36L245.28 91.93L245.14 91.49L245.02 91.04L244.92 90.59L244.84 90.17L247.13 90.22L247.2 90.51L247.29 90.86L247.4 91.22L247.53 91.56L247.66 91.9L247.81 92.23L247.97 92.55L248.14 92.86L248.33 93.16L248.52 93.46L248.73 93.74L248.94 94.02L249.17 94.28L249.4 94.54L249.65 94.79L249.9 95.03L250.16 95.25L250.43 95.47L250.71 95.67L250.99 95.87L251.29 96.05L251.58 96.22L251.89 96.38L252.2 96.53L252.52 96.67L252.84 96.79L253.16 96.9L253.5 97L253.83 97.09L254.17 97.17L254.51 97.23L254.86 97.28L255.21 97.31L255.56 97.33L255.91 97.34L256.27 97.33L256.62 97.31L256.98 97.27L257.33 97.22L257.69 97.16L258.05 97.08L258.41 96.98L258.76 96.87L259.1 96.75L259.44 96.61L259.77 96.46L260.09 96.3L260.4 96.13L260.71 95.95L261 95.75L261.29 95.55L261.56 95.33L261.83 95.11L262.09 94.87L262.33 94.63L262.57 94.37L262.8 94.11L263.01 93.84L263.22 93.57L263.41 93.28L263.59 92.99L263.77 92.69L263.93 92.39L264.08 92.08L264.08 92.06L246.4 87.04L244.78 87L244.83 86.62L244.91 86.19L245 85.77L245.11 85.35L245.24 84.93L245.38 84.53L245.53 84.12L245.7 83.73L245.89 83.34L246.09 82.96L246.3 82.59L246.53 82.22L246.78 81.86L247.03 81.52L247.3 81.18L247.58 80.85L247.88 80.54L248.19 80.23L248.51 79.94L248.84 79.66L249.19 79.39L249.55 79.13L249.91 78.89L250.29 78.66L250.68 78.44L251.08 78.24L251.49 78.06L251.92 77.89L252.35 77.73L252.79 77.6L253.23 77.48L253.68 77.38L254.13 77.29L254.57 77.23L255.02 77.19L255.47 77.16L255.91 77.15L256.35 77.16L256.79 77.19L257.22 77.23Z" id="c45PDon8Y"></path><linearGradient id="gradienta2NhQjTnMi" gradientUnits="userSpaceOnUse" x1="247.89" y1="82.04" x2="265.21" y2="96.08"><stop style="stop-color: #7abfc9;stop-opacity: 1" offset="0%"></stop><stop style="stop-color: #188a8d;stop-opacity: 1" offset="100%"></stop></linearGradient><path d="M309.88 196.76C308.98 197.8 308.42 198.45 308.2 198.71C296.59 212.07 277.14 215.35 261.79 206.52C255.76 203.05 260.7 205.9 253.83 201.94C240.17 194.09 223.29 194.43 209.96 202.84C208.9 203.51 206.24 205.19 201.99 207.87" id="acIJGSxo1"></path><path d="M267.09 179.73L312 179.73L312 188.75L195.91 188.75L195.91 153.64L312 153.64L312 162.66L267.09 162.66L267.09 162.66L267.09 179.73ZM253.96 179.73L253.96 162.66L207.1 162.66L207.1 179.73L207.1 179.73L253.96 179.73Z" id="h9beatoV0F"></path><path d="M312 211.93C311.1 212.97 310.54 213.62 310.32 213.87C298.71 227.24 279.26 230.52 263.91 221.69C257.88 218.22 262.82 221.07 255.95 217.11C242.29 209.26 225.41 209.6 212.08 218.01C211.02 218.68 208.36 220.36 204.11 223.04" id="c366EBx0Us"></path></defs><g><g><use xlink:href="#bi5P1puQP" opacity="1" fill="#1c2a2a" fill-opacity="0.99"></use><g><use xlink:href="#bi5P1puQP" opacity="1" fill-opacity="0" stroke="#7abfc9" stroke-width="9" stroke-opacity="1"></use></g></g><g><use xlink:href="#d2ua8nGUy" opacity="1" fill="#7abfc9" fill-opacity="0.99"></use></g><g><use xlink:href="#aDkCpw2zz" opacity="1" fill="#84a1a1" fill-opacity="0"></use><g><use xlink:href="#aDkCpw2zz" opacity="1" fill-opacity="0" stroke="#7abfc9" stroke-width="9" stroke-opacity="1"></use></g></g><g><use xlink:href="#ac812SiXa" opacity="1" fill="#7abfc9" fill-opacity="0.99"></use></g><g><use xlink:href="#c45PDon8Y" opacity="1" fill="url(#gradienta2NhQjTnMi)"></use><g><use xlink:href="#c45PDon8Y" opacity="1" fill-opacity="0" stroke="#000000" stroke-width="1" stroke-opacity="0"></use></g></g><g><g><use xlink:href="#acIJGSxo1" opacity="1" fill-opacity="0" stroke="#7abfc9" stroke-width="5" stroke-opacity="1"></use></g></g><g><use xlink:href="#h9beatoV0F" opacity="1" fill="#7abfc9" fill-opacity="1"></use></g><g><g><use xlink:href="#c366EBx0Us" opacity="1" fill-opacity="0" stroke="#7abfc9" stroke-width="5" stroke-opacity="1"></use></g></g></g></svg>