<?xml version="1.0" encoding="UTF-8" standalone="no"?>
<!DOCTYPE svg PUBLIC "-//W3C//DTD SVG 1.1//EN" "http://www.w3.org/Graphics/SVG/1.1/DTD/svg11.dtd">
<svg version="1.1" xmlns="http://www.w3.org/2000/svg" xmlns:xlink="http://www.w3.org/1999/xlink" preserveAspectRatio="xMidYMid meet" viewBox="66.40786164349534 45.02943186514205 90.9326584054986 91.39207178449306" width="86.93" height="87.39"><defs><path d="M115.9 46.33L117.58 46.57L119.25 46.86L120.9 47.23L122.53 47.65L124.14 48.13L125.73 48.68L127.3 49.29L128.85 49.96L130.35 50.68L131.84 51.46L133.3 52.3L134.72 53.19L136.11 54.14L137.45 55.13L138.77 56.19L140.04 57.29L141.27 58.44L142.46 59.64L143.61 60.89L144.71 62.19L145.75 63.54L146.75 64.92L147.7 66.36L148.59 67.84L149.44 69.36L150.21 70.92L150.94 72.52L151.6 74.16L152.2 75.85L152.74 77.56L153.2 79.3L153.6 81.04L153.91 82.78L154.16 84.52L154.33 86.26L154.34 86.35L145.54 86.15L145.48 85.56L145.28 84.17L145.03 82.78L144.72 81.38L144.34 79.99L143.92 78.62L143.44 77.28L142.91 75.96L142.32 74.68L141.7 73.43L141.03 72.22L140.31 71.03L139.56 69.89L138.76 68.77L137.92 67.7L137.04 66.66L136.13 65.66L135.17 64.7L134.18 63.78L133.17 62.89L132.12 62.05L131.04 61.25L129.93 60.5L128.79 59.79L127.63 59.11L126.44 58.49L125.23 57.91L123.99 57.38L122.74 56.89L121.47 56.45L120.18 56.07L118.88 55.72L117.56 55.44L116.22 55.2L114.87 55.01L113.51 54.87L112.15 54.79L110.77 54.76L109.39 54.8L108 54.87L106.61 55.02L105.22 55.21L103.83 55.47L102.43 55.78L101.04 56.16L99.67 56.58L98.32 57.06L97.01 57.59L95.73 58.17L94.48 58.8L93.26 59.47L92.08 60.18L90.94 60.94L89.82 61.74L88.75 62.58L87.71 63.46L86.71 64.37L85.75 65.32L84.83 66.31L83.95 67.33L83.11 68.38L82.3 69.46L81.55 70.57L80.83 71.7L80.16 72.87L79.54 74.06L78.96 75.27L78.43 76.5L77.94 77.75L77.5 79.03L77.42 79.31L144.88 98.49L153.53 98.69L153.27 99.85L152.85 101.48L152.36 103.09L151.82 104.69L151.21 106.25L150.54 107.79L149.82 109.31L149.04 110.79L148.2 112.24L147.31 113.67L146.36 115.05L145.37 116.4L144.31 117.72L143.21 118.99L142.06 120.22L140.86 121.41L139.61 122.56L138.31 123.65L136.96 124.71L135.58 125.7L134.14 126.65L132.66 127.55L131.14 128.38L129.58 129.16L127.98 129.89L126.34 130.55L124.65 131.15L122.94 131.69L121.2 132.15L119.46 132.54L117.72 132.86L115.98 133.11L114.24 133.28L112.5 133.39L110.78 133.42L109.06 133.39L107.35 133.29L105.66 133.12L103.97 132.88L102.3 132.59L100.65 132.22L99.02 131.8L97.41 131.31L95.81 130.77L94.25 130.16L92.71 129.49L91.19 128.77L89.71 127.99L88.26 127.15L86.83 126.26L85.45 125.31L84.1 124.31L82.78 123.26L81.51 122.16L80.28 121L79.09 119.81L77.94 118.55L76.84 117.26L75.79 115.91L74.8 114.52L73.85 113.09L72.95 111.61L72.12 110.09L71.34 108.53L70.61 106.92L69.95 105.29L69.35 103.6L68.81 101.88L68.35 100.15L67.96 98.41L67.65 96.77L76.58 96.97L76.84 98.07L77.2 99.45L77.63 100.83L78.12 102.17L78.64 103.49L79.22 104.77L79.84 106.02L80.52 107.23L81.24 108.42L81.99 109.56L82.79 110.68L83.63 111.75L84.51 112.79L85.42 113.79L86.37 114.75L87.36 115.67L88.38 116.55L89.43 117.39L90.51 118.2L91.62 118.95L92.76 119.66L93.92 120.34L95.11 120.96L96.32 121.54L97.55 122.07L98.8 122.56L100.08 123L101.37 123.39L102.67 123.72L103.99 124.01L105.33 124.25L106.68 124.44L108.04 124.58L109.4 124.65L110.77 124.68L112.16 124.65L113.54 124.57L114.93 124.43L116.33 124.23L117.72 123.98L119.11 123.66L120.51 123.29L121.88 122.86L123.22 122.38L124.54 121.85L125.82 121.28L127.07 120.65L128.28 119.98L129.47 119.26L130.61 118.51L131.73 117.7L132.8 116.87L133.84 115.99L134.84 115.08L135.8 114.13L136.72 113.14L137.61 112.12L138.45 111.07L139.24 109.98L140 108.88L140.71 107.74L141.39 106.57L142.01 105.39L142.59 104.18L142.61 104.13L73.73 84.54L67.41 84.4L67.61 82.92L67.91 81.25L68.27 79.6L68.7 77.97L69.19 76.35L69.73 74.77L70.34 73.2L71.01 71.65L71.73 70.14L72.51 68.66L73.35 67.2L74.24 65.78L75.19 64.39L76.18 63.05L77.24 61.73L78.34 60.46L79.49 59.22L80.69 58.04L81.95 56.89L83.24 55.79L84.59 54.75L85.98 53.75L87.41 52.8L88.89 51.9L90.4 51.06L91.97 50.29L93.57 49.56L95.21 48.9L96.89 48.3L98.61 47.76L100.35 47.3L102.09 46.9L103.83 46.59L105.57 46.34L107.31 46.17L109.05 46.06L110.77 46.03L112.49 46.06L114.2 46.17L115.9 46.33Z" id="db4zOeHJ"></path><linearGradient id="gradienta15jBI3M3z" gradientUnits="userSpaceOnUse" x1="79.54" y1="65.09" x2="147.02" y2="119.79"><stop style="stop-color: #7abfc9;stop-opacity: 1" offset="0%"></stop><stop style="stop-color: #188a8d;stop-opacity: 1" offset="100%"></stop></linearGradient></defs><g><g><use xlink:href="#db4zOeHJ" opacity="1" fill="url(#gradienta15jBI3M3z)"></use><g><use xlink:href="#db4zOeHJ" opacity="1" fill-opacity="0" stroke="#000000" stroke-width="1" stroke-opacity="0"></use></g></g></g></svg>